<?xml version="1.0" encoding="UTF-8"?>
<svg xmlns="http://www.w3.org/2000/svg" version="1.1" xmlns:xlink="http://www.w3.org/1999/xlink" viewBox="0 0 400 100">
  <!-- Generator: Adobe Illustrator 29.8.1, SVG Export Plug-In . SVG Version: 2.1.1 Build 2)  -->
  <defs>
    <style>
      .st0 {
        fill: url(#linear-gradient2);
      }

      .st1 {
        fill: url(#linear-gradient1);
      }

      .st2 {
        font-size: 83px;
      }

      .st2, .st3 {
        font-family: ScriptMTBold, 'Script MT Bold';
      }

      .st4, .st3 {
        isolation: isolate;
      }

      .st3 {
        fill: #fff;
        font-size: 96px;
      }

      .st5 {
        display: none;
      }

      .st6 {
        fill: url(#linear-gradient);
      }
    </style>
    <linearGradient id="linear-gradient" x1="98" y1="45.66" x2="183.7" y2="45.66" gradientUnits="userSpaceOnUse">
      <stop offset="0" stop-color="#de3b26"/>
      <stop offset="1" stop-color="#faa61a"/>
    </linearGradient>
    <linearGradient id="linear-gradient1" x1="180.38" y1="57.57" x2="213.41" y2="57.57" gradientUnits="userSpaceOnUse">
      <stop offset="0" stop-color="#faa61a"/>
      <stop offset="1" stop-color="#febe10"/>
    </linearGradient>
    <linearGradient id="linear-gradient2" x1="210.4" y1="57.34" x2="295.86" y2="57.34" gradientUnits="userSpaceOnUse">
      <stop offset="0" stop-color="#febe10"/>
      <stop offset=".48" stop-color="#f9eb38"/>
      <stop offset="1" stop-color="#f3f2ae"/>
    </linearGradient>
  </defs>
  <g id="Layer_1" class="st5">
    <g class="st4">
      <text class="st3" transform="translate(67.01 77.52)"><tspan x="0" y="0">Meniu</tspan></text>
    </g>
    <text class="st2" transform="translate(96.68 74.32)"><tspan x="0" y="0">Menu</tspan></text>
  </g>
  <g id="Layer_2">
    <path class="st6" d="M176.25,69.54c2.27-1.8,4.29-3.86,6.41-5.88.48-.45.99-.98,1.03-1.64.05-.8-.7-1.51-1.51-1.58s-1.16.14-1.72.72c-2.42,2.52-8.22,9.04-12.21,5.74-.9-.74-1.63-1.89-1.94-3.01-1.15-4.14-.44-8.43.28-12.67.47-2.77.77-5.64,1.42-8.37,1.16-4.86,2.65-9.6,3.87-14.44.76-3.04,2.04-6.04,3.4-8.85.43-.9,1.34-2.53.24-3.36-.31-.24-.75-.21-1.14-.18-.88.08-1.76.15-2.64.23-1.54.14-3.22.24-4.64.92-1.31.62-2.41,1.86-3.43,2.87-2.24,2.21-4.24,4.68-5.92,7.35-1.58,2.52-2.78,5.2-4.23,7.75-1.52,2.68-2.87,5.45-3.88,8.36-1.68,4.83-3.37,9.66-5.61,14.27-.74,1.52-1.47,3.03-2.21,4.55-.35.72-.54,1.32-1.15,1.83.23-1.56.84-2.76,1-4.33.14-1.3.28-2.61.42-3.91.34-3.19.44-6.4.52-9.61.12-4.84.12-9.66.08-14.48-.02-2.45.03-4.89.13-7.33.07-1.77.35-3.36.59-5.11.08-.56.47-1.74.34-2.27-.59-2.38-7.02-.78-8.22.38-2.29,2.22-4.06,5.03-5.32,7.96-.86,2-1.98,3.88-2.72,5.93-.85,2.35-1.4,4.74-1.84,7.19-.38,2.14-1.04,4.25-1.54,6.36s-1.06,4.42-1.84,6.55c-.31.83-.45,1.44-.69,2.29-1.31,4.64-3.36,8.55-6.13,12.46-1.35,1.91-3.31,3.82-5.86,3.23-1.72-.4-1.95-1.76-2.39-3.27-.26-.87-.46-1.75-.62-2.64-.18-.99-.56-2.35-1.88-2.28-.55.03-1.02.36-1.46.69-.99.74-1.95,1.52-2.88,2.33-.68.59-1.35,1.2-1.81,1.97s-.7,1.71-.45,2.57c.28.22.13.32.24.66,1.02,3.18,4.23,5.19,7.45,5.48,2.54.22,4.98-.69,6.99-2.21,2.05-1.54,4.11-3.14,5.62-5.22,1.76-2.43,3.1-5.3,4.22-8.07,1.87-4.64,3.14-9.5,4.48-14.3.51-1.82.68-3.67,1.11-5.46.51-2.15,1.32-4.26,1.97-6.37,1.16-3.76,2.77-7.09,4.95-10.36-.61,1.87-1.01,3.89-1.54,5.8-1.86,6.79-2.02,13.75-2.11,20.74-.06,4.42-.36,8.84-.81,13.23-.22,2.17-.48,4.33-.77,6.48-.2,1.52-1.1,3.41-.63,4.94.66,2.14,5.42.99,6.81.33,2.24-1.07,3.78-3.26,5.07-5.3s2.65-4.26,3.71-6.45c2.22-4.54,4.2-9.2,5.95-13.94.99-2.69,2.31-5.22,3.42-7.85,1.22-2.9,2.45-5.75,3.98-8.5,1.72-3.1,3.88-5.78,6.17-8.45.34-.4.68-.79,1.02-1.19-.41.48-.57,1.18-.87,1.73-2.17,4.03-4.36,8.05-5.5,12.54-.39,1.52-.86,3.02-1.34,4.51-.43,1.35-.54,2.77-.93,4.15-.6,2.16-1.06,4.36-1.37,6.59-.48,3.42-.61,6.89-.18,10.32.28,2.25.75,4.52,1.69,6.6.78,1.75,1.8,3.74,3.46,4.81,2.72,1.75,6.09,1.25,8.9,0,1.58-.71,2.88-1.74,4.33-2.64.94-.58,1.82-1.21,2.67-1.89Z"/>
    <path class="st1" d="M189.92,60.66c3.27-.8,6.48-1.94,9.48-3.48,2.52-1.3,5.1-2.8,6.81-5.13.8-1.09,1.61-2.56,1.69-3.94.07-1.22-.06-3.2-.72-4.22-1.75-2.71-5.37-4.24-8.52-4.04-4.1.25-7.23,2.51-10.29,5.01s-5.58,5.45-6.89,9.11c-.62,1.72-.82,3.71-.98,5.53-.25,2.83-.27,6.4,1.15,8.94.5.9,1.13,2.12,1.79,2.89,2.64,3.07,6.62,4.3,10.62,3.91,4.64-.45,8.65-2.66,12.21-5.57,2.05-1.68,3.44-3.49,4.97-5.65.78-1.1,1.76-2.13,2.11-3.47.1-.36.1-.83-.22-1.02-.14-.08-.32-.09-.49-.07-1.15.15-1.79,1.24-2.52,2-.89.93-1.92,1.74-2.84,2.64-1.38,1.35-2.88,2.59-4.68,3.34-1.83.76-3.74,1.13-5.71.74-1.52-.3-2.97-.99-4.17-1.96-2.3-1.85-2.88-4.98-3.1-7.73-.33-4.13.7-8.37,2.91-11.88.78-1.24,1.78-2.45,3.16-2.95.76-.28,1.73-.28,2.47.06,1.49.69,1.54,3.15,1.45,4.52-.12,1.8-.78,3.49-1.96,4.85-2.38,2.73-5.63,5.01-9.25,5.06"/>
    <path class="st0" d="M293.68,65.53c.42-.48.82-.97,1.2-1.46.65-.84,1.14-1.89.93-2.93-.08-.39-.28-.79-.64-.97-1.12-.56-2.47,1.51-3.13,2.16-.65.64-1.28,1.3-1.97,1.91-1.37,1.22-2.86,2.31-4.46,3.21-.48.27-1,.53-1.55.49-.88-.07-1.51-.88-1.86-1.69-1.2-2.8-.26-6.09.68-8.83.61-1.78,1.22-3.58,1.76-5.39.6-2.02,1.04-4.13,1.64-6.16.31-1.03.66-2.05.92-3.09.09-.36.73-3,1.01-3.06-3.67.78-7.33,1.55-11,2.32-.81,2.34-1.21,4.82-1.87,7.21s-1.67,4.91-2.31,7.42c-.66,2.55-1.85,5.09-3.5,7.15-1.69,2.11-5.1,6.16-8.25,4.83-1.21-.51-1.28-1.51-1.4-2.63-.19-1.76.16-3.58.42-5.31.76-5.06,2.79-9.91,4.28-14.78.31-1.02.6-2.04.95-3.06.11-.31.76-2.82.96-2.85-1.26.22-2.34.56-3.57.86-1.56.39-3.11.8-4.69,1.08-.63.11-1.58.06-2.15.32-.9.41-1.26,2.49-1.56,3.45-.84,2.68-1.46,5.42-2.27,8.1-.64,2.12-1.15,4.23-1.73,6.36-.46,1.67-1.54,2.98-2.78,4.17-1.06,1.02-2.22,1.94-3.45,2.76-1.31.88-2.62,2.07-4.28,1.05-1.94-1.19-.58-3.91-.19-5.54,1.21-5.14,3.38-9.54,4.77-14.64.69-2.54-.17-6.46-2.91-7.41-4.23-1.46-8.38,1.78-11.37,4.52-2.72,2.49-5.18,5.11-7.65,7.85.29-2.35,1.15-4.23,1.76-6.46.34-1.26.72-2.51,1.16-3.74.19-.53.91-3.26,1.43-3.42-2.23.69-4.4,1.11-6.7,1.39-.95.12-1.9.23-2.83.42-.2.04-.4.08-.56.2-.64.45-.78,1.85-1.09,2.54-.58,1.32-1.13,2.66-1.64,4.01-1,2.65-1.84,5.37-2.53,8.12-1.58,6.31-1.55,12.7-.85,19.16.05.49,5.22-.98,5.64-1.1.98-.27,2.05-.47,2.99-.84.49-.2.57-.24.59-.82.03-1.15-.06-2.4-.07-3.58,0-2.13.08-4.27.47-6.37.59-3.13,2.97-5.84,4.88-8.25,1.89-2.39,3.89-4.84,6.68-6.21.07-.04.15-.07.22-.11,3.91-1.82-.25,7.85-.53,8.56-.96,2.47-2.03,4.9-2.66,7.48-.56,2.29-1.11,5.38-.03,7.59.74,1.52,2.11,2.82,3.68,3.46,1.76.72,3.82-.04,5.55-.56,4.74-1.43,8.83-4.61,11.72-8.53.18.87.33,1.75.43,2.63.15,1.31.32,2.55,1.02,3.67s1.58,1.97,2.73,2.48c1,.44,1.73.73,2.82.66,1.72-.11,3.12-.22,4.66-.98s2.92-1.82,4.27-2.88c2.14-1.68,4.33-3.43,5.67-5.81-.34,2.09.09,4.3,1.19,6.12.64,1.07,1.31,1.68,2.36,2.34.73.46,1.47.93,2.31,1.13,2.89.68,5.71-1.46,8.02-2.88,1.93-1.19,3.79-2.69,5.55-4.19.94-.8,1.83-1.69,2.65-2.63Z"/>
  </g>
</svg>